<?xml version="1.0" encoding="UTF-8" standalone="no"?>
<svg
   xmlns:dc="http://purl.org/dc/elements/1.1/"
   xmlns:cc="http://creativecommons.org/ns#"
   xmlns:rdf="http://www.w3.org/1999/02/22-rdf-syntax-ns#"
   xmlns:svg="http://www.w3.org/2000/svg"
   xmlns="http://www.w3.org/2000/svg"
   xmlns:sodipodi="http://sodipodi.sourceforge.net/DTD/sodipodi-0.dtd"
   xmlns:inkscape="http://www.inkscape.org/namespaces/inkscape"
   viewBox="0 0 276.3775 145.27499"
   height="145.27499"
   width="276.3775"
   xml:space="preserve"
   version="1.1"
   id="svg2"
   inkscape:version="0.91 r13725"
   sodipodi:docname="sauber.svg"><sodipodi:namedview
     pagecolor="#ffffff"
     bordercolor="#666666"
     borderopacity="1"
     objecttolerance="10"
     gridtolerance="10"
     guidetolerance="10"
     inkscape:pageopacity="0"
     inkscape:pageshadow="2"
     inkscape:window-width="1600"
     inkscape:window-height="870"
     id="namedview27"
     showgrid="false"
     inkscape:snap-text-baseline="false"
     inkscape:zoom="3.5818744"
     inkscape:cx="142.01459"
     inkscape:cy="74.096336"
     inkscape:window-x="0"
     inkscape:window-y="30"
     inkscape:window-maximized="0"
     inkscape:current-layer="g10" /><metadata
     id="metadata8"><rdf:RDF><cc:Work
         rdf:about=""><dc:format>image/svg+xml</dc:format><dc:type
           rdf:resource="http://purl.org/dc/dcmitype/StillImage" /><dc:title></dc:title></cc:Work></rdf:RDF></metadata><defs
     id="defs6"><clipPath
       id="clipPath18"
       clipPathUnits="userSpaceOnUse"><path
         id="path20"
         d="m 8.504,8.5045 0,99.212 204.094,0 0,-99.212" /></clipPath><clipPath
       id="clipPath26"
       clipPathUnits="userSpaceOnUse"><path
         style="clip-rule:evenodd"
         id="path28"
         d="m 109.3359,99.9732 66.0772,0 c 14.1045,0 25.5388,-11.2626 25.5388,-25.1553 l 0,-16.9645 c 0,-13.8928 -11.4343,-25.1553 -25.5388,-25.1553 l -132.1547,0 c -14.1046,0 -25.5388,11.2625 -25.5388,25.1553 l 0,16.9645 c 0,13.8927 11.4342,25.1553 25.5388,25.1553" /></clipPath></defs><g
     transform="matrix(1.25,0,0,-1.25,0,145.275)"
     id="g10"><path
       id="path12"
       style="fill:#ffffff;fill-opacity:1;fill-rule:nonzero;stroke:none"
       d="m 8.504,8.5045 204.094,0 0,99.212 -204.094,0 0,-99.212 z" /><path
       d="m 27.225,85.0712 2.9021,0 c 2.4469,0 3.2537,-0.9742 3.2537,-3.0763 l 0,-2.8074 c 0,-2.1025 -0.8068,-3.0894 -3.2537,-3.0894 l -2.9021,0 c -0.2474,0 -0.3906,0.141 -0.3906,0.3844 l 0,8.1915 c 0,0.2561 0.1302,0.3844 0.3906,0.3972 z m 2.2384,-6.7683 0.7026,0 c 0.6247,0 0.9371,0.1023 0.9371,0.8715 l 0,2.8205 c 0,0.7947 -0.3124,0.8714 -0.9371,0.8714 l -0.7026,0 c -0.2474,0 -0.3906,-0.1282 -0.3906,-0.3844 l 0,-3.7946 c 0,-0.2434 0.1432,-0.3844 0.3906,-0.3844 z m 6.9097,6.7683 c 0.2601,0 0.3903,-0.1279 0.3903,-0.3844 l 0,-8.2043 c 0,-0.2434 -0.1302,-0.3844 -0.3903,-0.3844 l -1.4315,0 c -0.2474,0 -0.3906,0.141 -0.3906,0.3844 l 0,8.2043 c 0,0.2565 0.1432,0.3844 0.3906,0.3844 z m 7.5478,0 c 0.2604,0 0.3906,-0.1279 0.3906,-0.3844 l 0,-1.4357 c 0,-0.2437 -0.1302,-0.3847 -0.3906,-0.3847 l -3.1495,0 c -0.2471,0 -0.3903,-0.1283 -0.3903,-0.3845 l 0,-0.4103 c 0,-0.2434 0.1432,-0.3844 0.3903,-0.3844 l 2.0173,0 c 0.2604,0 0.3903,-0.1282 0.3903,-0.3847 l 0,-1.4357 c 0,-0.2437 -0.1299,-0.3847 -0.3903,-0.3847 l -2.0173,0 c -0.2471,0 -0.3903,-0.128 -0.3903,-0.3845 l 0,-0.4103 c 0,-0.2434 0.1432,-0.3844 0.3903,-0.3844 l 3.1495,0 c 0.2604,0 0.3906,-0.1282 0.3906,-0.3847 l 0,-1.4357 c 0,-0.2565 -0.1302,-0.3844 -0.3906,-0.3844 l -5.4658,0 c -0.2475,0 -0.3907,0.141 -0.3907,0.3844 l 0,8.2043 c 0,0.2565 0.1432,0.3844 0.3907,0.3844 z m 7.1572,-2.8585 -1.4839,-0.3205 c -0.26,-0.0512 -0.3902,0.064 -0.4292,0.3205 -0.0912,0.5254 -0.5208,0.859 -1.1322,0.859 -0.5078,0 -0.8202,-0.2949 -0.7679,-0.5898 0.1822,-1 4.2947,-0.9744 4.2947,-3.9228 0,-0.3845 -0.4425,-2.6536 -3.5268,-2.6536 -2.7333,0 -3.3187,1.7693 -3.3839,2.769 -0.013,0.2309 0.1042,0.372 0.3383,0.4231 l 1.4709,0.3205 c 0.26,0.0511 0.4032,-0.064 0.4292,-0.3333 0.0523,-0.6153 0.5338,-0.9741 1.1455,-0.9741 0.6377,0 1.1062,0.3716 1.028,0.7176 -0.2474,1.0897 -4.1645,0.8463 -4.1645,3.7947 -0.013,0.3844 0.2211,2.6535 3.1365,2.6535 2.681,0 3.3054,-1.7177 3.3836,-2.6407 0.013,-0.2309 -0.1042,-0.372 -0.3383,-0.4231 z m 7.274,2.8585 c 0.2605,0 0.3907,-0.1279 0.3907,-0.3844 l 0,-1.4357 c 0,-0.2437 -0.1302,-0.3847 -0.3907,-0.3847 l -3.1495,0 c -0.2471,0 -0.3902,-0.1283 -0.3902,-0.3845 l 0,-0.4103 c 0,-0.2434 0.1431,-0.3844 0.3902,-0.3844 l 2.0173,0 c 0.2605,0 0.3903,-0.1282 0.3903,-0.3847 l 0,-1.4357 c 0,-0.2437 -0.1298,-0.3847 -0.3903,-0.3847 l -2.0173,0 c -0.2471,0 -0.3902,-0.128 -0.3902,-0.3845 l 0,-0.4103 c 0,-0.2434 0.1431,-0.3844 0.3902,-0.3844 l 3.1495,0 c 0.2605,0 0.3907,-0.1282 0.3907,-0.3847 l 0,-1.4357 c 0,-0.2565 -0.1302,-0.3844 -0.3907,-0.3844 l -5.4661,0 c -0.2471,0 -0.3903,0.141 -0.3903,0.3844 l 0,8.2043 c 0,0.2565 0.1432,0.3844 0.3903,0.3844 z m 7.1572,-2.8585 -1.4838,-0.3205 c -0.2601,-0.0512 -0.3903,0.064 -0.4293,0.3205 -0.0912,0.5254 -0.5208,0.859 -1.1325,0.859 -0.5075,0 -0.8199,-0.2949 -0.7676,-0.5898 0.1822,-1 4.2947,-0.9744 4.2947,-3.9228 0,-0.3845 -0.4425,-2.6536 -3.5271,-2.6536 -2.7329,0 -3.3187,1.7693 -3.3836,2.769 -0.013,0.2309 0.1042,0.372 0.3383,0.4231 l 1.4709,0.3205 c 0.2601,0.0511 0.4032,-0.064 0.4292,-0.3333 0.0523,-0.6153 0.5338,-0.9741 1.1452,-0.9741 0.638,0 1.1066,0.3716 1.0283,0.7176 -0.2474,1.0897 -4.1645,0.8463 -4.1645,3.7947 -0.013,0.3844 0.2211,2.6535 3.1362,2.6535 2.681,0 3.3057,-1.7177 3.3839,-2.6407 0.013,-0.2309 -0.1042,-0.372 -0.3383,-0.4231 z m 11.347,0 -1.4835,-0.3205 c -0.2604,-0.0512 -0.3906,0.064 -0.4296,0.3205 -0.0909,0.5254 -0.5205,0.859 -1.1322,0.859 -0.5075,0 -0.8198,-0.2949 -0.7679,-0.5898 0.1822,-1 4.2947,-0.9744 4.2947,-3.9228 0,-0.3845 -0.4422,-2.6536 -3.5268,-2.6536 -2.7329,0 -3.3187,1.7693 -3.3836,2.769 -0.013,0.2309 0.1039,0.372 0.3383,0.4231 l 1.4705,0.3205 c 0.2605,0.0511 0.4036,-0.064 0.4296,-0.3333 0.052,-0.6153 0.5335,-0.9741 1.1452,-0.9741 0.6377,0 1.1062,0.3716 1.0283,0.7176 -0.2474,1.0897 -4.1648,0.8463 -4.1648,3.7947 -0.013,0.3844 0.2214,2.6535 3.1365,2.6535 2.681,0 3.3057,-1.7177 3.3836,-2.6407 0.0133,-0.2309 -0.1039,-0.372 -0.3383,-0.4231 z m 3.1878,2.8585 c 0.2211,0 0.3643,-0.0896 0.4426,-0.2949 l 0.963,-2.3842 c 0.0519,-0.1155 0.1299,-0.1155 0.1821,0 l 0.9631,2.3842 c 0.0779,0.2053 0.2211,0.2949 0.4425,0.2949 l 1.8608,0 c 0.2994,0 0.4296,-0.1795 0.2994,-0.4487 L 82.8683,79.4948 C 82.842,79.4437 82.842,79.3925 82.842,79.3413 l 0,-2.8588 c 0,-0.2434 -0.1299,-0.3844 -0.3903,-0.3844 l -1.8222,0 c -0.2471,0 -0.3903,0.141 -0.3903,0.3844 l 0,2.8588 c 0,0.0512 0,0.1024 -0.0259,0.1535 l -2.3427,5.1277 c -0.1302,0.2692 0,0.4487 0.2994,0.4487 z m 11.5558,-2.8585 -1.4835,-0.3205 c -0.2605,-0.0512 -0.3907,0.064 -0.4296,0.3205 -0.0913,0.5254 -0.5205,0.859 -1.1322,0.859 -0.5075,0 -0.8199,-0.2949 -0.7679,-0.5898 0.1821,-1 4.2947,-0.9744 4.2947,-3.9228 0,-0.3845 -0.4426,-2.6536 -3.5268,-2.6536 -2.733,0 -3.3187,1.7693 -3.384,2.769 -0.013,0.2309 0.1043,0.372 0.3387,0.4231 l 1.4705,0.3205 c 0.2604,0.0511 0.4033,-0.064 0.4296,-0.3333 0.0519,-0.6153 0.5335,-0.9741 1.1452,-0.9741 0.6377,0 1.1062,0.3716 1.028,0.7176 -0.2471,1.0897 -4.1645,0.8463 -4.1645,3.7947 -0.013,0.3844 0.2211,2.6535 3.1365,2.6535 2.681,0 3.3057,-1.7177 3.3836,-2.6407 0.013,-0.2309 -0.1039,-0.372 -0.3383,-0.4231 z m 3.3699,0.2692 c 0,0.2562 -0.1302,0.3844 -0.3906,0.3844 l -1.8218,0 c -0.2475,0 -0.3906,0.1411 -0.3906,0.3848 l 0,1.4356 c 0,0.2565 0.1431,0.3845 0.3906,0.3845 l 6.6633,0 c 0.2604,0 0.3903,-0.128 0.3903,-0.3845 l 0,-1.4356 c 0,-0.2437 -0.1299,-0.3848 -0.3903,-0.3848 l -1.8222,0 c -0.2471,0 -0.3903,-0.1282 -0.3903,-0.3844 l 0,-5.9994 c 0,-0.2434 -0.1302,-0.3844 -0.3906,-0.3844 l -1.4575,0 c -0.2471,0 -0.3903,0.141 -0.3903,0.3844 z m 11.4779,2.5893 c 0.2601,0 0.3903,-0.1279 0.3903,-0.3844 l 0,-1.4357 c 0,-0.2437 -0.1302,-0.3847 -0.3903,-0.3847 l -3.1495,0 c -0.2475,0 -0.3906,-0.1283 -0.3906,-0.3845 l 0,-0.4103 c 0,-0.2434 0.1431,-0.3844 0.3906,-0.3844 l 2.017,0 c 0.2604,0 0.3906,-0.1282 0.3906,-0.3847 l 0,-1.4357 c 0,-0.2437 -0.1302,-0.3847 -0.3906,-0.3847 l -2.017,0 c -0.2475,0 -0.3906,-0.128 -0.3906,-0.3845 l 0,-0.4103 c 0,-0.2434 0.1431,-0.3844 0.3906,-0.3844 l 3.1495,0 c 0.2601,0 0.3903,-0.1282 0.3903,-0.3847 l 0,-1.4357 c 0,-0.2565 -0.1302,-0.3844 -0.3903,-0.3844 l -5.4662,0 c -0.2474,0 -0.3906,0.141 -0.3906,0.3844 l 0,8.2043 c 0,0.2565 0.1432,0.3844 0.3906,0.3844 z m 4.4758,0 c 0.2344,0 0.3643,-0.128 0.4166,-0.3461 l 0.9241,-3.7303 c 0.0259,-0.1283 0.1299,-0.1283 0.1562,0 l 0.9237,3.7303 c 0.0523,0.2181 0.1825,0.3461 0.4166,0.3461 l 2.694,0 c 0.2604,0 0.3906,-0.1279 0.3906,-0.3844 l 0,-8.2043 c 0,-0.2434 -0.1302,-0.3844 -0.3906,-0.3844 l -1.4576,0 c -0.2474,0 -0.3906,0.141 -0.3906,0.3844 l 0,5.0509 c 0,0.0895 -0.1169,0.1023 -0.1429,0.0128 l -1.2623,-5.1149 c -0.0523,-0.2181 -0.1955,-0.3332 -0.4296,-0.3332 l -0.8592,0 c -0.2341,0 -0.3773,0.1151 -0.4292,0.3332 l -1.2624,5.1149 c -0.0263,0.0895 -0.1432,0.0767 -0.1432,-0.0128 l 0,-5.0509 c 0,-0.2434 -0.1302,-0.3844 -0.3906,-0.3844 l -1.4575,0 c -0.2604,0 -0.3903,0.141 -0.3903,0.3844 l 0,8.2043 c 0,0.2564 0.1299,0.3844 0.3903,0.3844 z m 12.9477,0 c 0.2601,0 0.3903,-0.1279 0.3903,-0.3844 l 0,-8.2043 c 0,-0.2434 -0.1302,-0.3844 -0.3903,-0.3844 l -1.4315,0 c -0.2475,0 -0.3906,0.141 -0.3906,0.3844 l 0,8.2043 c 0,0.2565 0.1431,0.3844 0.3906,0.3844 z m 7.717,-2.8585 -1.4835,-0.3205 c -0.2605,-0.0512 -0.3907,0.064 -0.4296,0.3205 -0.0909,0.5254 -0.5205,0.859 -1.1322,0.859 -0.5075,0 -0.8199,-0.2949 -0.7679,-0.5898 0.1821,-1 4.2947,-0.9744 4.2947,-3.9228 0,-0.3845 -0.4422,-2.6536 -3.5268,-2.6536 -2.7329,0 -3.3187,1.7693 -3.3836,2.769 -0.0133,0.2309 0.1039,0.372 0.3383,0.4231 l 1.4705,0.3205 c 0.2604,0.0511 0.4036,-0.064 0.4296,-0.3333 0.0519,-0.6153 0.5335,-0.9741 1.1452,-0.9741 0.6377,0 1.1062,0.3716 1.0279,0.7176 -0.247,1.0897 -4.1644,0.8463 -4.1644,3.7947 -0.013,0.3844 0.2214,2.6535 3.1365,2.6535 2.681,0 3.3057,-1.7177 3.3836,-2.6407 0.013,-0.2309 -0.1039,-0.372 -0.3383,-0.4231 z m 3.3699,0.2692 c 0,0.2562 -0.1302,0.3844 -0.3906,0.3844 l -1.8218,0 c -0.2474,0 -0.3906,0.1411 -0.3906,0.3848 l 0,1.4356 c 0,0.2565 0.1432,0.3845 0.3906,0.3845 l 6.6633,0 c 0.2604,0 0.3906,-0.128 0.3906,-0.3845 l 0,-1.4356 c 0,-0.2437 -0.1302,-0.3848 -0.3906,-0.3848 l -1.8222,0 c -0.247,0 -0.3902,-0.1282 -0.3902,-0.3844 l 0,-5.9994 c 0,-0.2434 -0.1302,-0.3844 -0.3903,-0.3844 l -1.4579,0 c -0.2471,0 -0.3903,0.141 -0.3903,0.3844"
       style="fill:#1a1a1a;fill-opacity:1;fill-rule:evenodd;stroke:none"
       id="path44"
       inkscape:connector-curvature="0"
       sodipodi:nodetypes="cssssssscssssssssssssssssssssssssssssssssssssssssssscccscssccccsccsccssssssssssssssssssssssssscccscssccccsccscccccscssccccsccsccsccccssccssssssccsscccscssccccsccsccsssssssssssssssssssssssssssssssssssssssssssccccssssssssccssccssssssssssssssssscccscssccccsccscccssssssssssssssc" /><path
       d="m 21.0903,21.938 0,-0.8321 c 0,-0.1489 -0.0756,-0.223 -0.2265,-0.223 l -1.8941,0 c -0.0453,0 -0.0752,-0.0223 -0.0752,-0.0745 l 0,-0.1486 c 0,-0.1413 0.0829,-0.223 0.2264,-0.223 l 0.2338,0 c 1.3959,0 1.8787,-1.1073 1.8787,-1.806 0,-0.7806 -0.4828,-1.8063 -1.8787,-1.8063 -1.5545,0 -1.8412,0.9962 -1.8865,1.5311 -0.0077,0.1339 0.0603,0.2155 0.1961,0.2454 l 0.8602,0.186 c 0.1512,0.0295 0.2264,-0.0374 0.2491,-0.186 0.0529,-0.3047 0.2264,-0.4979 0.5811,-0.4979 0.3622,0 0.5131,0.2824 0.4755,0.5277 -0.0606,0.4012 -0.3547,0.5721 -0.9358,0.5721 l -1.0715,0 c -0.1436,0 -0.2265,0.082 -0.2265,0.223 l 0,2.5121 c 0,0.1414 0.0829,0.2231 0.2265,0.2231 l 3.0409,0 c 0.1509,0 0.2265,-0.0741 0.2265,-0.2231 z m 3.8091,0.721 0.3697,0 c 0.1661,0 0.2417,-0.104 0.1811,-0.2601 l -2.2484,-6.0054 c -0.0453,-0.119 -0.1285,-0.1784 -0.2644,-0.1784 l -0.3696,0 c -0.1659,0 -0.2415,0.104 -0.1812,0.2601 l 2.2488,6.0057 c 0.0453,0.1187 0.1282,0.1781 0.264,0.1781 z m 5.394,-0.721 0,-0.8321 c 0,-0.1489 -0.0756,-0.223 -0.2265,-0.223 l -1.8941,0 c -0.0453,0 -0.0752,-0.0223 -0.0752,-0.0745 l 0,-0.1486 c 0,-0.1413 0.0829,-0.223 0.2264,-0.223 l 0.2338,0 c 1.3959,0 1.8788,-1.1073 1.8788,-1.806 0,-0.7806 -0.4829,-1.8063 -1.8788,-1.8063 -1.5545,0 -1.8412,0.9962 -1.8865,1.5311 -0.0076,0.1339 0.0603,0.2155 0.1962,0.2454 l 0.8601,0.186 c 0.1512,0.0295 0.2264,-0.0374 0.2491,-0.186 0.0529,-0.3047 0.2264,-0.4979 0.5811,-0.4979 0.3623,0 0.5131,0.2824 0.4755,0.5277 -0.0606,0.4012 -0.3546,0.5721 -0.9357,0.5721 l -1.0716,0 c -0.1432,0 -0.2265,0.082 -0.2265,0.223 l 0,2.5121 c 0,0.1414 0.0833,0.2231 0.2265,0.2231 l 3.0409,0 c 0.1509,0 0.2265,-0.0741 0.2265,-0.2231 z m 6.8118,-1.4343 -0.8601,-0.1856 c -0.1512,-0.0299 -0.2265,0.037 -0.2491,0.1856 -0.0529,0.3047 -0.302,0.4979 -0.6567,0.4979 -0.294,0 -0.4752,-0.1709 -0.4452,-0.3418 0.1059,-0.5799 2.4902,-0.5648 2.4902,-2.2743 0,-0.2231 -0.2564,-1.5387 -2.045,-1.5387 -1.5844,0 -1.9241,1.0257 -1.9617,1.6056 -0.0077,0.1338 0.0603,0.2155 0.1961,0.2453 l 0.8525,0.1857 c 0.1512,0.0298 0.2341,-0.0371 0.2491,-0.1932 0.0303,-0.3569 0.3094,-0.5648 0.664,-0.5648 0.37,0 0.6414,0.2155 0.5961,0.4162 -0.1432,0.6317 -2.4146,0.4904 -2.4146,2.1999 -0.0073,0.223 0.1282,1.5387 1.8185,1.5387 1.5545,0 1.9168,-0.9962 1.9621,-1.5311 0.0076,-0.1339 -0.0603,-0.2155 -0.1962,-0.2454 z m 2.0663,0.1561 c 0,0.1486 -0.0756,0.2231 -0.2265,0.2231 l -1.0562,0 c -0.1436,0 -0.2265,0.0816 -0.2265,0.223 l 0,0.8322 c 0,0.1489 0.0829,0.223 0.2265,0.223 l 3.8634,0 c 0.1509,0 0.2261,-0.0741 0.2261,-0.223 l 0,-0.8322 c 0,-0.1414 -0.0752,-0.223 -0.2261,-0.223 l -1.0566,0 c -0.1432,0 -0.2264,-0.0745 -0.2264,-0.2231 l 0,-3.4784 c 0,-0.1414 -0.0753,-0.223 -0.2261,-0.223 l -0.8452,0 c -0.1435,0 -0.2264,0.0816 -0.2264,0.223 l 0,3.4784 z m 6.7672,1.5013 c 0.1509,0 0.2265,-0.0741 0.2265,-0.2231 l 0,-0.8321 c 0,-0.1414 -0.0756,-0.223 -0.2265,-0.223 l -1.8262,0 c -0.1431,0 -0.2264,-0.0745 -0.2264,-0.2231 l 0,-0.2378 c 0,-0.1413 0.0832,-0.223 0.2264,-0.223 l 1.1695,0 c 0.1512,0 0.2265,-0.0745 0.2265,-0.223 l 0,-0.8325 c 0,-0.1411 -0.0753,-0.2231 -0.2265,-0.2231 l -1.1695,0 c -0.1431,0 -0.2264,-0.0741 -0.2264,-0.2227 l 0,-0.2381 c 0,-0.141 0.0832,-0.2227 0.2264,-0.2227 l 1.8262,0 c 0.1509,0 0.2265,-0.0745 0.2265,-0.223 l 0,-0.8325 c 0,-0.1486 -0.0756,-0.223 -0.2265,-0.223 l -3.1691,0 c -0.1436,0 -0.2265,0.0816 -0.2265,0.223 l 0,4.7566 c 0,0.149 0.0829,0.2231 0.2265,0.2231 l 3.1691,0 z m 4.0959,-3.3371 0.7999,-1.4642 c 0.1059,-0.1932 -0.015,-0.4014 -0.2488,-0.4014 l -0.8604,0 c -0.0753,0 -0.1432,0.037 -0.1735,0.1039 l -0.7846,1.4941 c -0.0153,0.0223 -0.0379,0.037 -0.0606,0.037 l -0.3017,0 c -0.1359,0 -0.2341,-0.0964 -0.2341,-0.2302 l 0,-1.1743 c 0,-0.1338 -0.0979,-0.2305 -0.2338,-0.2305 l -0.8451,0 c -0.1359,0 -0.2338,0.0967 -0.2338,0.2305 l 0,4.7419 c 0,0.1339 0.0979,0.2303 0.2338,0.2303 l 1.6527,0 c 1.343,0 1.8864,-0.5648 1.8864,-1.7837 0,-0.6914 -0.1738,-1.1745 -0.5737,-1.4569 -0.03,-0.0224 -0.0377,-0.0594 -0.0227,-0.0965 z m -1.2448,2.0589 -0.3849,0 c -0.1359,0 -0.2341,-0.0968 -0.2341,-0.2306 l 0,-0.5501 c 0,-0.1338 0.0982,-0.2302 0.2341,-0.2302 l 0.3849,0 c 0.362,0 0.5432,0.0446 0.5432,0.5054 0,0.4609 -0.1812,0.5055 -0.5432,0.5055 z m 3.9904,1.2782 c 0.1282,0 0.2111,-0.0518 0.2641,-0.1709 l 1.0263,-2.4751 c 0.0299,-0.0669 0.0902,-0.0518 0.0902,0.0223 l 0,2.4007 c 0,0.1489 0.0833,0.223 0.2265,0.223 l 0.8451,0 c 0.1509,0 0.2265,-0.0741 0.2265,-0.223 l 0,-4.7567 c 0,-0.1414 -0.0756,-0.223 -0.2265,-0.223 l -1.1092,0 c -0.1282,0 -0.2111,0.0521 -0.2641,0.1708 l -1.0263,2.4751 c -0.03,0.0669 -0.0906,0.0522 -0.0906,-0.0223 l 0,-2.4006 c 0,-0.1414 -0.0752,-0.223 -0.2261,-0.223 l -0.8451,0 c -0.1436,0 -0.2265,0.0816 -0.2265,0.223 l 0,4.7567 c 0,0.1489 0.0829,0.223 0.2265,0.223 l 1.1092,0 z m 6.9407,0 c 0.1509,0 0.2261,-0.0741 0.2261,-0.2231 l 0,-0.8321 c 0,-0.1414 -0.0752,-0.223 -0.2261,-0.223 l -1.8262,0 c -0.1435,0 -0.2264,-0.0745 -0.2264,-0.2231 l 0,-0.2378 c 0,-0.1413 0.0829,-0.223 0.2264,-0.223 l 1.1695,0 c 0.1509,0 0.2265,-0.0745 0.2265,-0.223 l 0,-0.8325 c 0,-0.1411 -0.0756,-0.2231 -0.2265,-0.2231 l -1.1695,0 c -0.1435,0 -0.2264,-0.0741 -0.2264,-0.2227 l 0,-0.2381 c 0,-0.141 0.0829,-0.2227 0.2264,-0.2227 l 1.8262,0 c 0.1509,0 0.2261,-0.0745 0.2261,-0.223 l 0,-0.8325 c 0,-0.1486 -0.0752,-0.223 -0.2261,-0.223 l -3.1695,0 c -0.1432,0 -0.2261,0.0816 -0.2261,0.223 l 0,4.7566 c 0,0.149 0.0829,0.2231 0.2261,0.2231"
       style="fill:#1a1a1a;fill-opacity:1;fill-rule:evenodd;stroke:none"
       id="path46" /><path
       d="m 19.715,25.3962 1.7689,0 c 0.1678,0 0.2514,-0.0827 0.2514,-0.2477 l 0,-0.9249 c 0,-0.1568 -0.0836,-0.2477 -0.2514,-0.2477 l -4.1665,0 c -0.2015,0 -0.2768,0.124 -0.1762,0.2972 l 2.2887,3.9639 c 0.0336,0.0577 0.0083,0.099 -0.0586,0.099 l -1.6014,0 c -0.1592,0 -0.2514,0.0909 -0.2514,0.2477 l 0,0.9249 c 0,0.165 0.0922,0.2477 0.2514,0.2477 l 4.041,0 c 0.2011,0 0.2767,-0.124 0.1761,-0.2972 l -2.3306,-3.9639 c -0.0337,-0.0577 -0.0084,-0.099 0.0586,-0.099 z m 6.5128,4.3601 c 0.1678,0 0.2517,-0.0827 0.2517,-0.2477 l 0,-0.9249 c 0,-0.1568 -0.0839,-0.2477 -0.2517,-0.2477 l -2.0287,0 c -0.1591,0 -0.2514,-0.0826 -0.2514,-0.2476 l 0,-0.2644 c 0,-0.1568 0.0923,-0.2476 0.2514,-0.2476 l 1.2994,0 c 0.1678,0 0.2514,-0.0827 0.2514,-0.248 l 0,-0.9246 c 0,-0.1571 -0.0836,-0.248 -0.2514,-0.248 l -1.2994,0 c -0.1591,0 -0.2514,-0.0823 -0.2514,-0.2476 l 0,-0.2641 c 0,-0.1571 0.0923,-0.2479 0.2514,-0.2479 l 2.0287,0 c 0.1678,0 0.2517,-0.0827 0.2517,-0.2477 l 0,-0.9249 c 0,-0.165 -0.0839,-0.2477 -0.2517,-0.2477 l -3.5208,0 c -0.1595,0 -0.2518,0.0909 -0.2518,0.2477 l 0,5.285 c 0,0.165 0.0923,0.2477 0.2518,0.2477 l 3.5208,0 z m 4.4255,-3.7078 0.8888,-1.6268 c 0.1172,-0.2145 -0.0166,-0.4458 -0.2767,-0.4458 l -0.9557,0 c -0.0839,0 -0.1592,0.0413 -0.1928,0.1155 l -0.8718,1.66 c -0.017,0.0246 -0.042,0.0413 -0.0673,0.0413 l -0.3353,0 c -0.1509,0 -0.2598,-0.1076 -0.2598,-0.2562 l 0,-1.3047 c 0,-0.1486 -0.1088,-0.2559 -0.26,-0.2559 l -0.9388,0 c -0.1508,0 -0.26,0.1073 -0.26,0.2559 l 0,5.2686 c 0,0.1486 0.1092,0.2559 0.26,0.2559 l 1.8359,0 c 1.4921,0 2.0959,-0.6275 2.0959,-1.9818 0,-0.7679 -0.1928,-1.3048 -0.6371,-1.6187 -0.0336,-0.0246 -0.0419,-0.0659 -0.0253,-0.1073 z m -1.3832,2.2875 -0.4276,0 c -0.1509,0 -0.2597,-0.1072 -0.2597,-0.2561 l 0,-0.6111 c 0,-0.1486 0.1088,-0.2559 0.2597,-0.2559 l 0.4276,0 c 0.4026,0 0.6037,0.0496 0.6037,0.5616 0,0.512 -0.2011,0.5615 -0.6037,0.5615 z m 3.998,-0.2476 c 0,0.165 -0.084,0.2476 -0.2515,0.2476 l -1.1738,0 c -0.1592,0 -0.2514,0.0909 -0.2514,0.2477 l 0,0.9249 c 0,0.165 0.0922,0.2477 0.2514,0.2477 l 4.2924,0 c 0.1678,0 0.2514,-0.0827 0.2514,-0.2477 l 0,-0.9249 c 0,-0.1568 -0.0836,-0.2477 -0.2514,-0.2477 l -1.1735,0 c -0.1595,0 -0.2518,-0.0826 -0.2518,-0.2476 l 0,-3.8648 c 0,-0.1568 -0.0835,-0.2477 -0.2514,-0.2477 l -0.939,0 c -0.1592,0 -0.2514,0.0909 -0.2514,0.2477 l 0,3.8648 z m 4.7942,1.6679 c 0.1678,0 0.2517,-0.0827 0.2517,-0.2477 l 0,-5.285 c 0,-0.1568 -0.0839,-0.2477 -0.2517,-0.2477 l -0.9221,0 c -0.1592,0 -0.2514,0.0909 -0.2514,0.2477 l 0,5.285 c 0,0.165 0.0922,0.2477 0.2514,0.2477 l 0.9221,0 z m 4.946,0 c 0.1675,0 0.2514,-0.0827 0.2514,-0.2477 l 0,-0.9249 c 0,-0.1568 -0.0839,-0.2477 -0.2514,-0.2477 l -2.1129,0 c -0.1592,0 -0.2514,-0.0826 -0.2514,-0.2476 l 0,-0.2644 c 0,-0.1568 0.0922,-0.2476 0.2514,-0.2476 l 1.3833,0 c 0.1678,0 0.2518,-0.0827 0.2518,-0.248 l 0,-0.9246 c 0,-0.1571 -0.084,-0.248 -0.2518,-0.248 l -1.3833,0 c -0.1592,0 -0.2514,-0.0823 -0.2514,-0.2476 l 0,-1.6846 c 0,-0.1568 -0.0839,-0.2477 -0.2514,-0.2477 l -0.9893,0 c -0.1592,0 -0.2515,0.0909 -0.2515,0.2477 l 0,5.285 c 0,0.165 0.0923,0.2477 0.2515,0.2477 l 3.605,0 z m 1.9271,0 c 0.1678,0 0.2514,-0.0827 0.2514,-0.2477 l 0,-5.285 c 0,-0.1568 -0.0836,-0.2477 -0.2514,-0.2477 l -0.9221,0 c -0.1595,0 -0.2514,0.0909 -0.2514,0.2477 l 0,5.285 c 0,0.165 0.0919,0.2477 0.2514,0.2477 l 0.9221,0 z m 3.9733,-2.7169 1.8275,-2.7663 c 0.1176,-0.165 0.042,-0.2972 -0.1591,-0.2972 l -1.2574,0 c -0.1342,0 -0.2265,0.0495 -0.3021,0.1653 l -1.0393,1.5689 c -0.0336,0.0495 -0.0839,0.0495 -0.1175,0 l -0.3437,-0.4625 c -0.0253,-0.0332 -0.0336,-0.066 -0.0336,-0.1073 l 0,-0.9167 c 0,-0.1568 -0.0839,-0.2477 -0.2514,-0.2477 l -0.9557,0 c -0.1592,0 -0.2514,0.0909 -0.2514,0.2477 l 0,5.285 c 0,0.165 0.0922,0.2477 0.2514,0.2477 l 0.9557,0 c 0.1675,0 0.2514,-0.0827 0.2514,-0.2477 l 0,-1.66 c 0,-0.0823 0.0586,-0.099 0.1006,-0.0328 l 1.3163,1.7837 c 0.0753,0.1072 0.1675,0.1568 0.3017,0.1568 l 1.2408,0 c 0.2098,0 0.2767,-0.1322 0.1595,-0.3054 l -1.6937,-2.2957 c -0.0249,-0.0413 -0.0336,-0.0744 0,-0.1158 z m 6.404,-2.7827 c 0,-0.1817 -0.084,-0.2808 -0.2515,-0.2808 l -0.939,0 c -0.1592,0 -0.2514,0.0827 -0.2514,0.2477 l 0,0.7186 c 0,0.165 -0.0839,0.2476 -0.2514,0.2476 l -0.7213,0 c -0.1592,0 -0.2514,-0.0826 -0.2514,-0.2476 l 0,-0.7186 c 0,-0.165 -0.084,-0.2477 -0.2515,-0.2477 l -0.939,0 c -0.1592,0 -0.2514,0.0991 -0.2514,0.2808 l 0,3.5014 c 0,1.0404 0.1675,2.1467 2.0539,2.1467 1.8865,0 2.054,-1.1063 2.054,-2.1467 l 0,-3.5014 z m -1.4419,3.5014 c 0,0.3962 -0.0586,0.5943 -0.6121,0.5943 -0.5534,0 -0.612,-0.1981 -0.612,-0.5943 l 0,-0.9004 c 0,-0.1568 0.0922,-0.2476 0.2514,-0.2476 l 0.7213,0 c 0.1675,0.0082 0.2514,0.0908 0.2514,0.2561 l 0,0.8919 z m 3.4109,0.3303 c 0,0.165 -0.0836,0.2476 -0.2514,0.2476 l -1.1739,0 c -0.1591,0 -0.2514,0.0909 -0.2514,0.2477 l 0,0.9249 c 0,0.165 0.0923,0.2477 0.2514,0.2477 l 4.2927,0 c 0.1675,0 0.2515,-0.0827 0.2515,-0.2477 l 0,-0.9249 c 0,-0.1568 -0.084,-0.2477 -0.2515,-0.2477 l -1.1738,0 c -0.1592,0 -0.2514,-0.0826 -0.2514,-0.2476 l 0,-3.8648 c 0,-0.1568 -0.0839,-0.2477 -0.2517,-0.2477 l -0.9388,0 c -0.1595,0 -0.2517,0.0909 -0.2517,0.2477"
       style="fill:#1a1a1a;fill-opacity:1;fill-rule:evenodd;stroke:none"
       id="path48" /><path
       d="m 70.8977,30.6963 2.2125,-4.4152 4.9467,-0.7081 -3.5794,-3.4368 0.8445,-4.8531 -4.4243,2.2914 -4.4249,-2.2911 0.8452,4.8531 -3.5791,3.4368 4.9467,0.7078"
       style="fill:#800080;fill-opacity:1;fill-rule:evenodd;stroke:none"
       id="path50" /><path
       d="m 87.0249,30.6963 2.2121,-4.4152 4.9471,-0.7081 -3.5798,-3.4368 0.8449,-4.8531 -4.4246,2.2914 -4.4246,-2.2911 0.8452,4.8531 -3.5791,3.4371 4.9467,0.7075"
       style="fill:#800080;fill-opacity:1;fill-rule:evenodd;stroke:none"
       id="path52" /><path
       d="m 103.3692,30.6963 2.2125,-4.4152 4.9467,-0.7081 -3.5798,-3.4368 0.8449,-4.8531 -4.4243,2.2914 -4.4249,-2.2911 0.8452,4.8531 -3.5791,3.4371 4.9467,0.7075"
       style="fill:#800080;fill-opacity:1;fill-rule:evenodd;stroke:none"
       id="path54" /><path
       d="m 119.574,30.6963 2.2124,-4.4152 4.9468,-0.7081 -3.5798,-3.4368 0.8448,-4.8531 -4.4245,2.2914 -4.4246,-2.2911 0.8451,4.8531 -3.579,3.4371 4.9467,0.7075"
       style="fill:#800080;fill-opacity:1;fill-rule:evenodd;stroke:none"
       id="path56" /><path
       d="m 135.7788,30.6963 2.2121,-4.4152 4.947,-0.7081 -3.5797,-3.4368 0.8448,-4.8531 -4.4246,2.2914 -4.4245,-2.2911 0.8451,4.8531 -3.5791,3.4371 4.9468,0.7075"
       style="fill:#800080;fill-opacity:1;fill-rule:evenodd;stroke:none"
       id="path58" /><path
       d="m 31.0466,54.2333 c -20.697733,-36.15553 -10.348867,-18.077765 0,0 z"
       style="fill:#e0dcdd;fill-opacity:1;fill-rule:evenodd;stroke:none"
       id="path60"
       inkscape:connector-curvature="0"
       sodipodi:nodetypes="cc" /><path
       d="m 136.8607,73.1959 0.5907,0 0.5275,-1.4566 0.5315,1.4566 0.5871,0 0,-2.0346 -0.379,0 0,1.6417 -0.5714,-1.6417 -0.3307,0 -0.5767,1.6417 0,-1.6417 -0.379,0 0,2.0346 z m -1.4359,-0.3394 -0.6753,0 0,0.3394 1.7609,0 0,-0.3394 -0.6753,0 0,-1.6952 -0.4103,0"
       style="fill:#1a1a1a;fill-opacity:1;fill-rule:evenodd;stroke:none"
       id="path64"
       inkscape:connector-curvature="0" /><path
       id="rect8239"
       transform="matrix(0.8,0,0,-0.8,0,116.22)"
       d="m 47.697266,20.308594 c -17.47793,0 -31.546875,14.070898 -31.546875,31.548828 l 0,20.996094 c 0,17.477929 14.068945,31.548824 31.546875,31.548824 l 127.275394,0 0,-8.185543 -127.197269,0 c -12.927327,0 -23.333985,-10.406655 -23.333985,-23.333985 l 0,-21.054687 c 0,-12.927327 10.406658,-23.333984 23.333985,-23.333984 l 138.996089,0 c 2.93315,-3.341866 6.49584,-6.129749 10.50977,-8.185547 z"
       style="fill:#1a1a1a;fill-opacity:1;stroke:none;stroke-width:0.80000001;stroke-opacity:1"
       inkscape:connector-curvature="0"
       sodipodi:nodetypes="ssssccssssccs" /><text
       xml:space="preserve"
       style="font-style:normal;font-variant:normal;font-weight:normal;font-stretch:normal;font-size:39.02239609px;line-height:125%;font-family:'DejaVu Sans';-inkscape-font-specification:'DejaVu Sans';letter-spacing:0px;word-spacing:0px;fill:#1a1a1a;fill-opacity:1;stroke:none;stroke-width:1px;stroke-linecap:butt;stroke-linejoin:miter;stroke-opacity:1"
       x="28.736713"
       y="-39.334991"
       id="text3355"
       sodipodi:linespacing="125%"
       transform="scale(0.8398163,-1.1907366)"><tspan
         sodipodi:role="line"
         id="tspan3357"
         x="28.736713"
         y="-39.334991"
         style="font-style:normal;font-variant:normal;font-weight:bold;font-stretch:normal;font-size:28.43664932px;font-family:'DejaVu Serif';-inkscape-font-specification:'DejaVu Serif Bold';fill:#1a1a1a">SAUBER</tspan></text>
<path
       inkscape:connector-curvature="0"
       id="path68"
       style="fill:#000000;fill-opacity:1;fill-rule:nonzero;stroke:none"
       d="m 180.51919,58.611516 -7.0686,19.6404 -1.1625,0 -6.6471,-19.7343 -3.2109,19.3593 -4.7904,0 4.7436,-29.3436 3.5343,0 7.3455,19.6407 7.0218,-19.6407 3.5811,0 4.233,29.3436 -4.7907,0 -2.7891,-19.2654 z" /><g
       transform="matrix(0.24,0,0,-0.24,120.07039,137.02611)"
       id="g3643"
       style="fill:#000000"><path
         style="color:#000000;font-style:normal;font-variant:normal;font-weight:normal;font-stretch:normal;font-size:medium;line-height:normal;font-family:sans-serif;text-indent:0;text-align:start;text-decoration:none;text-decoration-line:none;text-decoration-style:solid;text-decoration-color:#000000;letter-spacing:normal;word-spacing:normal;text-transform:none;direction:ltr;block-progression:tb;writing-mode:lr-tb;baseline-shift:baseline;text-anchor:start;white-space:normal;clip-rule:nonzero;display:inline;overflow:visible;visibility:visible;opacity:1;isolation:auto;mix-blend-mode:normal;color-interpolation:sRGB;color-interpolation-filters:linearRGB;solid-color:#000000;solid-opacity:1;fill:#000000;fill-opacity:1;fill-rule:nonzero;stroke:none;stroke-width:5.00000048;stroke-linecap:round;stroke-linejoin:round;stroke-miterlimit:4;stroke-dasharray:none;stroke-dashoffset:0;stroke-opacity:1;color-rendering:auto;image-rendering:auto;shape-rendering:auto;text-rendering:auto;enable-background:accumulate"
         d="m 220,171.73828 a 2.5002502,2.5002502 0 0 0 -2.5,2.5 l 0,13.23633 a 2.5002502,2.5002502 0 0 0 2.5,2.5 c 8.13277,0 16.07577,0.81975 23.74609,2.37305 7.66395,1.55457 15.06658,3.84874 22.10938,6.79882 0.88108,0.36942 1.75517,0.74895 2.625,1.13868 0.86987,0.38975 1.73542,0.78943 2.59375,1.19922 0.85835,0.40979 1.71006,0.83016 2.55664,1.25976 0.84657,0.4296 1.68697,0.86922 2.52148,1.31836 0.83453,0.44915 1.66221,0.90657 2.48438,1.375 a 2.5002502,2.5002502 0 1 0 2.47656,-4.34375 c -0.85711,-0.48833 -1.72186,-0.96734 -2.5918,-1.43555 -0.86993,-0.4682 -1.74643,-0.92522 -2.6289,-1.37304 -0.88248,-0.44782 -1.76935,-0.88534 -2.66406,-1.3125 -0.89474,-0.42717 -1.79648,-0.84378 -2.70313,-1.25 -0.90667,-0.40624 -1.81998,-0.80248 -2.73828,-1.1875 -7.3422,-3.0755 -15.05832,-5.46747 -23.04688,-7.08789 -7.1978,-1.45773 -14.65006,-2.19545 -22.24023,-2.34766 l 0,-8.23633 c 8.17563,0.15267 16.19331,0.94333 23.93555,2.51563 a 2.5002502,2.5002502 0 0 0 0.002,0 c 8.53884,1.73043 16.775,4.28329 24.62305,7.57031 7.84372,3.28674 15.29858,7.30763 22.27929,11.97851 6.97807,4.67294 13.47689,9.98799 19.41407,15.86719 5.93064,5.87904 11.30149,12.31917 16.00976,19.23047 a 2.5002502,2.5002502 0 0 0 0.002,0.002 c 4.71416,6.90787 8.77462,14.29409 12.08985,22.0625 a 2.5004674,2.5004674 0 0 0 4.59961,-1.96289 c -3.44442,-8.07113 -7.66339,-15.74254 -12.5586,-22.91601 l -0.002,-0.002 C 328.00369,224.03 322.42887,217.3438 316.27344,211.24219 a 2.5002502,2.5002502 0 0 0 -0.002,0 c -6.16281,-6.10264 -12.9065,-11.61912 -20.14843,-16.46875 a 2.5002502,2.5002502 0 0 0 -0.002,0 c -7.24638,-4.84878 -14.98565,-9.02329 -23.1289,-12.43555 -8.14638,-3.41196 -16.69756,-6.06312 -25.56055,-7.85937 l -0.002,0 C 238.56574,172.67856 229.39001,171.73828 220,171.73828 Z"
         id="path3610"
         inkscape:connector-curvature="0" /><g
         id="g78"
         transform="matrix(1.25,0,0,1.25,-343.95,-1301.2356)"
         style="fill:#000000"><path
           style="color:#000000;font-style:normal;font-variant:normal;font-weight:normal;font-stretch:normal;font-size:medium;line-height:normal;font-family:sans-serif;text-indent:0;text-align:start;text-decoration:none;text-decoration-line:none;text-decoration-style:solid;text-decoration-color:#000000;letter-spacing:normal;word-spacing:normal;text-transform:none;direction:ltr;block-progression:tb;writing-mode:lr-tb;baseline-shift:baseline;text-anchor:start;white-space:normal;clip-rule:nonzero;display:inline;overflow:visible;visibility:visible;opacity:1;isolation:auto;mix-blend-mode:normal;color-interpolation:sRGB;color-interpolation-filters:linearRGB;solid-color:#000000;solid-opacity:1;fill:#000000;fill-opacity:1;fill-rule:nonzero;stroke:none;stroke-width:4;stroke-linecap:round;stroke-linejoin:round;stroke-miterlimit:4;stroke-dasharray:none;stroke-dashoffset:0;stroke-opacity:1;color-rendering:auto;image-rendering:auto;shape-rendering:auto;text-rendering:auto;enable-background:accumulate"
           d="m 503.08594,1200.3164 c -3.25119,0 -5.92969,2.6785 -5.92969,5.9297 0,3.2492 2.67604,5.9297 5.92969,5.9297 3.25164,0 5.92969,-2.6781 5.92968,-5.9297 0,-3.2537 -2.6805,-5.9297 -5.92968,-5.9297 z m 0,4 c 1.08682,0 1.92969,0.8393 1.92968,1.9297 0,1.0844 -0.84532,1.9297 -1.92968,1.9297 -1.09036,0 -1.92969,-0.8429 -1.92969,-1.9297 0,-1.0928 0.83688,-1.9297 1.92969,-1.9297 z"
           id="path80"
           inkscape:connector-curvature="0" /></g></g><g
       transform="matrix(0.24,0,0,-0.24,120.07039,137.02611)"
       id="g3636"
       style="fill:#000000"><path
         style="color:#000000;font-style:normal;font-variant:normal;font-weight:normal;font-stretch:normal;font-size:medium;line-height:normal;font-family:sans-serif;text-indent:0;text-align:start;text-decoration:none;text-decoration-line:none;text-decoration-style:solid;text-decoration-color:#000000;letter-spacing:normal;word-spacing:normal;text-transform:none;direction:ltr;block-progression:tb;writing-mode:lr-tb;baseline-shift:baseline;text-anchor:start;white-space:normal;clip-rule:nonzero;display:inline;overflow:visible;visibility:visible;opacity:1;isolation:auto;mix-blend-mode:normal;color-interpolation:sRGB;color-interpolation-filters:linearRGB;solid-color:#000000;solid-opacity:1;fill:#000000;fill-opacity:1;fill-rule:nonzero;stroke:none;stroke-width:5.00000048;stroke-linecap:round;stroke-linejoin:round;stroke-miterlimit:4;stroke-dasharray:none;stroke-dashoffset:0;stroke-opacity:1;color-rendering:auto;image-rendering:auto;shape-rendering:auto;text-rendering:auto;enable-background:accumulate"
         d="m 220,198.21875 c -1.88755,0 -3.76446,0.0468 -5.62891,0.14063 -1.86444,0.0938 -3.71573,0.23277 -5.55468,0.41796 -1.83896,0.18521 -3.66542,0.41721 -5.47657,0.69141 -0.4526,0.0685 -0.90411,0.13875 -1.35546,0.21289 a 2.5002502,2.5002502 0 1 0 0.81054,4.93359 c 0.43015,-0.0707 0.8605,-0.13764 1.29297,-0.20312 1.72916,-0.26178 3.47247,-0.48135 5.22852,-0.6582 1.75604,-0.17685 3.52576,-0.31081 5.30664,-0.40039 1.78087,-0.0896 3.57326,-0.13477 5.37695,-0.13477 7.21477,0 14.25522,0.72591 21.05078,2.10352 6.80195,1.37886 13.35748,3.40743 19.60352,6.02539 6.24741,2.61854 12.18642,5.81957 17.74023,9.53906 5.55541,3.71854 10.72879,7.9545 15.45508,12.63281 4.72701,4.68278 8.99991,9.8089 12.75195,15.31055 3.75208,5.5029 6.98465,11.38023 9.625,17.5664 a 2.5002502,2.5002502 0 0 0 3.26367,1.32422 l 12.31446,-5.15625 a 2.5002502,2.5002502 0 0 0 1.33398,-3.28711 c -3.10704,-7.27509 -6.9104,-14.19548 -11.32226,-20.66601 -2.20844,-3.23837 -4.56926,-6.36329 -7.07227,-9.36719 -0.31287,-0.37548 -0.62799,-0.74942 -0.94531,-1.12109 -0.31729,-0.37164 -0.6353,-0.74155 -0.95703,-1.10938 -0.3217,-0.36778 -0.64656,-0.73372 -0.97266,-1.09765 a 2.5007114,2.5007114 0 0 0 -3.72461,3.33789 c 0.31274,0.34902 0.62499,0.69991 0.93359,1.05273 0.30855,0.35275 0.6136,0.706 0.91797,1.0625 0.30435,0.35647 0.60812,0.71603 0.90821,1.07617 2.40073,2.88116 4.66344,5.8789 6.78125,8.98438 3.76016,5.51474 6.97587,11.41339 9.7539,17.54297 l -7.70312,3.22461 c -2.57085,-5.65507 -5.5349,-11.09585 -9.00391,-16.1836 -3.93295,-5.76691 -8.41029,-11.14023 -13.36328,-16.04687 -4.95093,-4.90081 -10.37167,-9.33761 -16.19336,-13.23438 -5.82119,-3.89855 -12.0428,-7.25278 -18.58789,-9.99609 -6.54646,-2.74388 -13.41742,-4.87 -20.54297,-6.31445 -7.11944,-1.44326 -14.49469,-2.20313 -22.04492,-2.20313 z"
         id="path3604"
         inkscape:connector-curvature="0" /><g
         id="g82"
         transform="matrix(1.25,0,0,1.25,-343.95,-1301.2356)"
         style="fill:#000000"><path
           style="color:#000000;font-style:normal;font-variant:normal;font-weight:normal;font-stretch:normal;font-size:medium;line-height:normal;font-family:sans-serif;text-indent:0;text-align:start;text-decoration:none;text-decoration-line:none;text-decoration-style:solid;text-decoration-color:#000000;letter-spacing:normal;word-spacing:normal;text-transform:none;direction:ltr;block-progression:tb;writing-mode:lr-tb;baseline-shift:baseline;text-anchor:start;white-space:normal;clip-rule:nonzero;display:inline;overflow:visible;visibility:visible;opacity:1;isolation:auto;mix-blend-mode:normal;color-interpolation:sRGB;color-interpolation-filters:linearRGB;solid-color:#000000;solid-opacity:1;fill:#000000;fill-opacity:1;fill-rule:nonzero;stroke:none;stroke-width:4;stroke-linecap:round;stroke-linejoin:round;stroke-miterlimit:4;stroke-dasharray:none;stroke-dashoffset:0;stroke-opacity:1;color-rendering:auto;image-rendering:auto;shape-rendering:auto;text-rendering:auto;enable-background:accumulate"
           d="m 519.51562,1214.2461 c -3.25118,0 -5.92968,2.6785 -5.92968,5.9297 0,3.2492 2.6785,5.9258 5.92968,5.9258 3.24919,0 5.92579,-2.6773 5.92579,-5.9258 0,-3.2506 -2.6766,-5.9297 -5.92579,-5.9297 z m 0,4 c 1.08682,0 1.92579,0.8363 1.92579,1.9297 0,1.0874 -0.83897,1.9258 -1.92579,1.9258 -1.09281,0 -1.92968,-0.839 -1.92968,-1.9258 0,-1.0928 0.83687,-1.9297 1.92968,-1.9297 z"
           id="path84"
           inkscape:connector-curvature="0" /></g><g
         id="g86"
         transform="matrix(1.25,0,0,1.25,-343.95,-1301.2356)"
         style="fill:#000000"><path
           style="color:#000000;font-style:normal;font-variant:normal;font-weight:normal;font-stretch:normal;font-size:medium;line-height:normal;font-family:sans-serif;text-indent:0;text-align:start;text-decoration:none;text-decoration-line:none;text-decoration-style:solid;text-decoration-color:#000000;letter-spacing:normal;word-spacing:normal;text-transform:none;direction:ltr;block-progression:tb;writing-mode:lr-tb;baseline-shift:baseline;text-anchor:start;white-space:normal;clip-rule:nonzero;display:inline;overflow:visible;visibility:visible;opacity:1;isolation:auto;mix-blend-mode:normal;color-interpolation:sRGB;color-interpolation-filters:linearRGB;solid-color:#000000;solid-opacity:1;fill:#000000;fill-opacity:1;fill-rule:nonzero;stroke:none;stroke-width:4;stroke-linecap:round;stroke-linejoin:round;stroke-miterlimit:4;stroke-dasharray:none;stroke-dashoffset:0;stroke-opacity:1;color-rendering:auto;image-rendering:auto;shape-rendering:auto;text-rendering:auto;enable-background:accumulate"
           d="m 432.72656,1198.1758 c -3.24918,0 -5.92578,2.6766 -5.92578,5.9258 0,3.2506 2.6766,5.9296 5.92578,5.9296 3.25069,0 5.92969,-2.679 5.92969,-5.9296 0,-3.2492 -2.679,-5.9258 -5.92969,-5.9258 z m 0,4 c 1.09132,0 1.92969,0.8389 1.92969,1.9258 0,1.0913 -0.83837,1.9296 -1.92969,1.9296 -1.08682,0 -1.92578,-0.8383 -1.92578,-1.9296 0,-1.0869 0.83896,-1.9258 1.92578,-1.9258 z"
           id="path88"
           inkscape:connector-curvature="0" /></g></g><g
       transform="matrix(0.24,0,0,-0.24,120.07039,137.02611)"
       id="g3624"
       style="fill:#000000;stroke:#00ff00"><path
         style="color:#000000;font-style:normal;font-variant:normal;font-weight:normal;font-stretch:normal;font-size:medium;line-height:normal;font-family:sans-serif;text-indent:0;text-align:start;text-decoration:none;text-decoration-line:none;text-decoration-style:solid;text-decoration-color:#000000;letter-spacing:normal;word-spacing:normal;text-transform:none;direction:ltr;block-progression:tb;writing-mode:lr-tb;baseline-shift:baseline;text-anchor:start;white-space:normal;clip-rule:nonzero;display:inline;overflow:visible;visibility:visible;opacity:1;isolation:auto;mix-blend-mode:normal;color-interpolation:sRGB;color-interpolation-filters:linearRGB;solid-color:#000000;solid-opacity:1;fill:#000000;fill-opacity:1;fill-rule:nonzero;stroke:none;stroke-width:5.00000048;stroke-linecap:round;stroke-linejoin:round;stroke-miterlimit:4;stroke-dasharray:none;stroke-dashoffset:0;stroke-opacity:1;color-rendering:auto;image-rendering:auto;shape-rendering:auto;text-rendering:auto;enable-background:accumulate"
         d="m 157.16016,218.48633 a 2.5002502,2.5002502 0 0 0 -1.56836,0.49414 c -0.35435,0.25602 -0.70742,0.51327 -1.0586,0.77344 -1.40456,1.04052 -2.78157,2.11417 -4.13281,3.21875 -2.70247,2.20912 -5.29595,4.54307 -7.76953,6.99414 -4.95158,4.90651 -9.43033,10.27996 -13.36328,16.04687 -3.93987,5.76925 -7.3222,11.93182 -10.0957,18.41797 a 2.5002502,2.5002502 0 0 0 -0.002,0.002 c -2.76951,6.48878 -4.91987,13.29914 -6.3789,20.35743 a 2.5002502,2.5002502 0 0 0 0,0.002 c -1.45505,7.06391 -2.22071,14.37337 -2.22071,21.85351 0,7.48498 0.76563,14.79271 2.22071,21.85547 a 2.5005148,2.5005148 0 1 0 4.89843,-1.00781 c -1.38742,-6.73442 -2.11914,-13.70332 -2.11914,-20.84766 0,-7.13927 0.73169,-14.108 2.11914,-20.84375 l -0.002,0.002 c 1.39084,-6.72837 3.44189,-13.22026 6.08203,-19.40625 l 0,-0.002 c 2.64601,-6.1877 5.87225,-12.06377 9.62891,-17.56445 a 2.5002502,2.5002502 0 0 0 0,-0.002 c 3.75204,-5.50165 8.02603,-10.62765 12.75195,-15.31055 2.36018,-2.33869 4.83468,-4.56727 7.41406,-6.67578 1.2897,-1.05426 2.60464,-2.07907 3.94532,-3.07227 0.33512,-0.24827 0.67149,-0.49388 1.00976,-0.73828 a 2.5002502,2.5002502 0 0 0 -1.35937,-4.54687 z"
         id="path76"
         inkscape:connector-curvature="0" /><g
         id="g90"
         transform="matrix(1.25,0,0,1.25,-343.95,-1301.2356)"
         style="fill:#000000;stroke:#00ff00"><path
           style="color:#000000;font-style:normal;font-variant:normal;font-weight:normal;font-stretch:normal;font-size:medium;line-height:normal;font-family:sans-serif;text-indent:0;text-align:start;text-decoration:none;text-decoration-line:none;text-decoration-style:solid;text-decoration-color:#000000;letter-spacing:normal;word-spacing:normal;text-transform:none;direction:ltr;block-progression:tb;writing-mode:lr-tb;baseline-shift:baseline;text-anchor:start;white-space:normal;clip-rule:nonzero;display:inline;overflow:visible;visibility:visible;opacity:1;isolation:auto;mix-blend-mode:normal;color-interpolation:sRGB;color-interpolation-filters:linearRGB;solid-color:#000000;solid-opacity:1;fill:#000000;fill-opacity:1;fill-rule:nonzero;stroke:none;stroke-width:4;stroke-linecap:round;stroke-linejoin:round;stroke-miterlimit:4;stroke-dasharray:none;stroke-dashoffset:0;stroke-opacity:1;color-rendering:auto;image-rendering:auto;shape-rendering:auto;text-rendering:auto;enable-background:accumulate"
           d="m 404.51562,1209.2461 c -3.25118,0 -5.92968,2.6785 -5.92968,5.9297 0,3.2492 2.6785,5.9258 5.92968,5.9258 3.24919,0 5.92579,-2.6773 5.92579,-5.9258 0,-3.2506 -2.6766,-5.9297 -5.92579,-5.9297 z m 0,4 c 1.08682,0 1.92579,0.8363 1.92579,1.9297 0,1.0874 -0.83897,1.9258 -1.92579,1.9258 -1.09281,0 -1.92968,-0.839 -1.92968,-1.9258 0,-1.0928 0.83687,-1.9297 1.92968,-1.9297 z"
           id="path92"
           inkscape:connector-curvature="0" /></g></g><g
       transform="matrix(0.24,0,0,-0.24,120.07039,137.02611)"
       id="g3631"
       style="fill:#000000;stroke:#00ff00"><path
         style="color:#000000;font-style:normal;font-variant:normal;font-weight:normal;font-stretch:normal;font-size:medium;line-height:normal;font-family:sans-serif;text-indent:0;text-align:start;text-decoration:none;text-decoration-line:none;text-decoration-style:solid;text-decoration-color:#000000;letter-spacing:normal;word-spacing:normal;text-transform:none;direction:ltr;block-progression:tb;writing-mode:lr-tb;baseline-shift:baseline;text-anchor:start;white-space:normal;clip-rule:nonzero;display:inline;overflow:visible;visibility:visible;opacity:1;isolation:auto;mix-blend-mode:normal;color-interpolation:sRGB;color-interpolation-filters:linearRGB;solid-color:#000000;solid-opacity:1;fill:#000000;fill-opacity:1;fill-rule:nonzero;stroke:none;stroke-width:5.00000048;stroke-linecap:round;stroke-linejoin:round;stroke-miterlimit:4;stroke-dasharray:none;stroke-dashoffset:0;stroke-opacity:1;color-rendering:auto;image-rendering:auto;shape-rendering:auto;text-rendering:auto;enable-background:accumulate"
         d="m 106.06836,265.89258 a 2.5002502,2.5002502 0 0 0 -2.41016,1.72656 c -1.56144,4.58056 -2.74384,9.10053 -3.892575,14.25977 a 2.5002502,2.5002502 0 0 0 -0.04492,0.16015 c -0.0041,0.0184 -0.0096,0.0324 -0.01367,0.0508 a 2.5002502,2.5002502 0 0 0 -0.0059,0.0352 2.5002502,2.5002502 0 0 0 -0.04492,0.29688 c -1.601467,7.83462 -2.453125,15.93503 -2.453125,24.2246 0,8.39746 0.857449,16.60026 2.498047,24.5254 a 2.5002502,2.5002502 0 1 0 4.896483,-1.01368 c -1.57191,-7.59328 -2.39454,-15.45459 -2.39454,-23.51172 0,-8.04865 0.822,-15.9078 2.39258,-23.49804 6.7e-4,-0.003 0.001,-0.007 0.002,-0.01 1.13747,-5.12912 2.28566,-9.48451 3.79296,-13.90625 a 2.5002502,2.5002502 0 0 0 -2.32226,-3.33984 z"
         id="path72"
         inkscape:connector-curvature="0" /><g
         id="g94"
         transform="matrix(1.25,0,0,1.25,-343.95,-1301.2356)"
         style="fill:#000000;stroke:#00ff00"><path
           style="color:#000000;font-style:normal;font-variant:normal;font-weight:normal;font-stretch:normal;font-size:medium;line-height:normal;font-family:sans-serif;text-indent:0;text-align:start;text-decoration:none;text-decoration-line:none;text-decoration-style:solid;text-decoration-color:#000000;letter-spacing:normal;word-spacing:normal;text-transform:none;direction:ltr;block-progression:tb;writing-mode:lr-tb;baseline-shift:baseline;text-anchor:start;white-space:normal;clip-rule:nonzero;display:inline;overflow:visible;visibility:visible;opacity:1;isolation:auto;mix-blend-mode:normal;color-interpolation:sRGB;color-interpolation-filters:linearRGB;solid-color:#000000;solid-opacity:1;fill:#000000;fill-opacity:1;fill-rule:nonzero;stroke:none;stroke-width:4;stroke-linecap:round;stroke-linejoin:round;stroke-miterlimit:4;stroke-dasharray:none;stroke-dashoffset:0;stroke-opacity:1;color-rendering:auto;image-rendering:auto;shape-rendering:auto;text-rendering:auto;enable-background:accumulate"
           d="m 361.65625,1244.9609 c -3.24918,0 -5.92969,2.6748 -5.92969,5.9258 0,3.2531 2.68112,5.9297 5.92969,5.9297 3.25058,0 5.92969,-2.6785 5.92969,-5.9297 0,-3.2492 -2.6785,-5.9258 -5.92969,-5.9258 z m 0,4 c 1.09281,0 1.92969,0.839 1.92969,1.9258 0,1.0928 -0.83627,1.9297 -1.92969,1.9297 -1.08743,0 -1.92969,-0.8387 -1.92969,-1.9297 0,-1.085 0.84287,-1.9258 1.92969,-1.9258 z"
           id="path96"
           inkscape:connector-curvature="0" /></g></g><g
       transform="matrix(0.24,0,0,-0.24,120.07039,137.02611)"
       id="g3648"
       style="fill:#000000"><path
         style="color:#000000;font-style:normal;font-variant:normal;font-weight:normal;font-stretch:normal;font-size:medium;line-height:normal;font-family:sans-serif;text-indent:0;text-align:start;text-decoration:none;text-decoration-line:none;text-decoration-style:solid;text-decoration-color:#000000;letter-spacing:normal;word-spacing:normal;text-transform:none;direction:ltr;block-progression:tb;writing-mode:lr-tb;baseline-shift:baseline;text-anchor:start;white-space:normal;clip-rule:nonzero;display:inline;overflow:visible;visibility:visible;opacity:1;isolation:auto;mix-blend-mode:normal;color-interpolation:sRGB;color-interpolation-filters:linearRGB;solid-color:#000000;solid-opacity:1;fill:#000000;fill-opacity:1;fill-rule:nonzero;stroke:none;stroke-width:5.00000048;stroke-linecap:round;stroke-linejoin:round;stroke-miterlimit:4;stroke-dasharray:none;stroke-dashoffset:0;stroke-opacity:1;color-rendering:auto;image-rendering:auto;shape-rendering:auto;text-rendering:auto;enable-background:accumulate"
         d="m 324.70312,282.76367 a 2.5002502,2.5002502 0 0 0 -2.39453,3.03906 c 1.39095,6.73492 2.1211,13.70448 2.1211,20.84375 0,7.14434 -0.73018,14.11211 -2.1211,20.84571 -0.34806,1.68267 -0.7369,3.35033 -1.16601,5.00195 -0.4291,1.65161 -0.89808,3.2876 -1.40625,4.90625 -0.50818,1.61866 -1.05536,3.21902 -1.64063,4.80273 a 2.5002502,2.5002502 0 1 0 4.68946,1.73438 c 0.61395,-1.66136 1.18762,-3.34303 1.7207,-5.04102 0.53307,-1.69798 1.0245,-3.41399 1.47461,-5.14648 0.45011,-1.73246 0.85956,-3.48132 1.22461,-5.24609 1.45908,-7.06359 2.22461,-14.37245 2.22461,-21.85743 0,-7.48014 -0.76555,-14.78877 -2.22461,-21.85351 a 2.5002502,2.5002502 0 0 0 -2.50196,-2.0293 z"
         id="path3602"
         inkscape:connector-curvature="0" /><g
         id="g98"
         transform="matrix(1.25,0,0,1.25,-343.95,-1301.2356)"
         style="fill:#000000"><path
           style="color:#000000;font-style:normal;font-variant:normal;font-weight:normal;font-stretch:normal;font-size:medium;line-height:normal;font-family:sans-serif;text-indent:0;text-align:start;text-decoration:none;text-decoration-line:none;text-decoration-style:solid;text-decoration-color:#000000;letter-spacing:normal;word-spacing:normal;text-transform:none;direction:ltr;block-progression:tb;writing-mode:lr-tb;baseline-shift:baseline;text-anchor:start;white-space:normal;clip-rule:nonzero;display:inline;overflow:visible;visibility:visible;opacity:1;isolation:auto;mix-blend-mode:normal;color-interpolation:sRGB;color-interpolation-filters:linearRGB;solid-color:#000000;solid-opacity:1;fill:#000000;fill-opacity:1;fill-rule:nonzero;stroke:none;stroke-width:4;stroke-linecap:round;stroke-linejoin:round;stroke-miterlimit:4;stroke-dasharray:none;stroke-dashoffset:0;stroke-opacity:1;color-rendering:auto;image-rendering:auto;shape-rendering:auto;text-rendering:auto;enable-background:accumulate"
           d="m 529.51562,1313.1758 c -3.25118,0 -5.92968,2.6766 -5.92968,5.9258 0,3.2506 2.6785,5.9296 5.92968,5.9296 3.24919,0 5.92579,-2.6796 5.92579,-5.9296 0,-3.2486 -2.6766,-5.9258 -5.92579,-5.9258 z m 0,4 c 1.08682,0 1.92579,0.8383 1.92579,1.9258 0,1.0919 -0.83897,1.9296 -1.92579,1.9296 -1.09281,0 -1.92968,-0.8383 -1.92968,-1.9296 0,-1.0869 0.83687,-1.9258 1.92968,-1.9258 z"
           id="path100"
           inkscape:connector-curvature="0" /></g></g><g
       transform="matrix(0.24,0,0,-0.24,120.07039,137.02611)"
       id="g3660"
       style="fill:#000000"><path
         style="color:#000000;font-style:normal;font-variant:normal;font-weight:normal;font-stretch:normal;font-size:medium;line-height:normal;font-family:sans-serif;text-indent:0;text-align:start;text-decoration:none;text-decoration-line:none;text-decoration-style:solid;text-decoration-color:#000000;letter-spacing:normal;word-spacing:normal;text-transform:none;direction:ltr;block-progression:tb;writing-mode:lr-tb;baseline-shift:baseline;text-anchor:start;white-space:normal;clip-rule:nonzero;display:inline;overflow:visible;visibility:visible;opacity:1;isolation:auto;mix-blend-mode:normal;color-interpolation:sRGB;color-interpolation-filters:linearRGB;solid-color:#000000;solid-opacity:1;fill:#000000;fill-opacity:1;fill-rule:nonzero;stroke:none;stroke-width:5.00000048;stroke-linecap:round;stroke-linejoin:round;stroke-miterlimit:4;stroke-dasharray:none;stroke-dashoffset:0;stroke-opacity:1;color-rendering:auto;image-rendering:auto;shape-rendering:auto;text-rendering:auto;enable-background:accumulate"
         d="m 120.17969,370.77734 a 2.5002502,2.5002502 0 0 0 -1.32031,0.41993 l -11.08204,7.40234 a 2.5002502,2.5002502 0 0 0 -0.67773,3.48828 c 4.89541,7.17852 10.46732,13.86296 16.625,19.9668 a 2.5002502,2.5002502 0 0 0 0,0.002 c 6.16193,6.09671 12.90745,11.6177 20.1543,16.4668 7.24166,4.85009 14.98223,9.02378 23.12304,12.43554 a 2.5002502,2.5002502 0 0 0 0.002,0 c 8.14723,3.4118 16.6951,6.06234 25.55859,7.85743 8.86497,1.80157 18.04214,2.74218 27.4375,2.74218 9.39045,0 18.56667,-0.94061 27.43164,-2.74218 8.86344,-1.79508 17.41437,-4.44555 25.56055,-7.85743 8.14305,-3.41217 15.8822,-7.58528 23.1289,-12.43554 a 2.5004882,2.5004882 0 1 0 -2.78125,-4.15625 c -6.98079,4.67229 -14.43484,8.69146 -22.27929,11.97851 -7.84825,3.2871 -16.08466,5.8412 -24.62305,7.57032 a 2.5002502,2.5002502 0 0 0 -0.002,0.002 c -8.53753,1.73503 -17.3785,2.64062 -26.43555,2.64062 -9.06214,0 -17.90388,-0.90559 -26.44141,-2.64062 a 2.5002502,2.5002502 0 0 0 -0.002,-0.002 c -8.53773,-1.72899 -16.77191,-4.28347 -24.62109,-7.57032 l -0.002,0 c -7.84275,-3.28697 -15.29872,-7.30701 -22.27343,-11.97851 a 2.5002502,2.5002502 0 0 0 -0.002,0 c -6.97989,-4.67047 -13.47652,-9.98884 -19.41406,-15.86328 l -0.002,-0.002 c -5.33354,-5.28713 -10.13407,-11.08395 -14.49024,-17.21289 l 6.92383,-4.625 c 4.06081,5.70304 8.53172,11.10279 13.50195,16.02539 a 2.5002502,2.5002502 0 0 0 0,0.002 c 5.55693,5.50113 11.63571,10.47816 18.17188,14.84961 6.53294,4.37015 13.50997,8.13812 20.85742,11.21875 a 2.5002502,2.5002502 0 0 0 0.002,0.002 c 7.34557,3.07477 15.05582,5.46663 23.05079,7.08594 7.98975,1.62066 16.26873,2.46875 24.74023,2.46875 a 2.5002502,2.5002502 0 0 0 2.5,-2.5 l 0,-10.86329 c 6.66975,-0.14982 13.21936,-0.79518 19.54297,-2.07812 7.12611,-1.44331 13.99871,-3.57262 20.54492,-6.31641 6.54638,-2.74258 12.76827,-6.09974 18.58789,-9.99218 a 2.5002502,2.5002502 0 0 0 0,-0.002 c 0.72765,-0.48721 1.44907,-0.98244 2.16406,-1.48633 0.71497,-0.50388 1.42291,-1.0168 2.125,-1.5371 0.70206,-0.52028 1.39901,-1.0476 2.08789,-1.58399 0.68885,-0.53638 1.37145,-1.08059 2.04688,-1.63281 0.67541,-0.55221 1.34222,-1.11195 2.00391,-1.67969 a 2.5002502,2.5002502 0 1 0 -3.25586,-3.79492 c -0.63164,0.54196 -1.26932,1.07638 -1.91407,1.60351 -0.64473,0.52713 -1.29553,1.04656 -1.95312,1.5586 -0.65758,0.51201 -1.32203,1.01703 -1.99219,1.51367 -0.67013,0.49662 -1.3468,0.98384 -2.0293,1.46484 -0.68248,0.48098 -1.36991,0.95488 -2.06445,1.41993 -5.55537,3.71569 -11.49411,6.92031 -17.74023,9.53711 -6.24629,2.61807 -12.80213,4.64979 -19.60352,6.02734 -6.795,1.3787 -13.83573,2.10352 -21.05078,2.10351 a 2.5002502,2.5002502 0 0 0 -2.5,2.5 l 0,10.61329 c -7.25735,-0.15047 -14.37819,-0.85104 -21.24609,-2.24414 -7.66854,-1.55307 -15.06512,-3.84677 -22.11329,-6.79688 l -0.002,-0.002 c -7.04666,-2.95469 -13.73897,-6.56823 -20.00781,-10.76172 a 2.5002502,2.5002502 0 0 0 -0.002,0 c -6.26883,-4.19265 -12.10052,-8.97047 -17.4336,-14.25 -5.33035,-5.27927 -10.15004,-11.06258 -14.38086,-17.26758 a 2.5002502,2.5002502 0 0 0 -2.13476,-1.0918 z"
         id="path3600"
         inkscape:connector-curvature="0" /><g
         id="g102"
         transform="matrix(1.25,0,0,1.25,-343.95,-1301.2356)"
         style="fill:#000000"><path
           style="color:#000000;font-style:normal;font-variant:normal;font-weight:normal;font-stretch:normal;font-size:medium;line-height:normal;font-family:sans-serif;text-indent:0;text-align:start;text-decoration:none;text-decoration-line:none;text-decoration-style:solid;text-decoration-color:#000000;letter-spacing:normal;word-spacing:normal;text-transform:none;direction:ltr;block-progression:tb;writing-mode:lr-tb;baseline-shift:baseline;text-anchor:start;white-space:normal;clip-rule:nonzero;display:inline;overflow:visible;visibility:visible;opacity:1;isolation:auto;mix-blend-mode:normal;color-interpolation:sRGB;color-interpolation-filters:linearRGB;solid-color:#000000;solid-opacity:1;fill:#000000;fill-opacity:1;fill-rule:nonzero;stroke:none;stroke-width:4;stroke-linecap:round;stroke-linejoin:round;stroke-miterlimit:4;stroke-dasharray:none;stroke-dashoffset:0;stroke-opacity:1;color-rendering:auto;image-rendering:auto;shape-rendering:auto;text-rendering:auto;enable-background:accumulate"
           d="m 510.58594,1341.3867 c -3.25303,0 -5.92969,2.6805 -5.92969,5.9297 0,3.2512 2.6785,5.9297 5.92969,5.9297 3.24918,0 5.92969,-2.676 5.92968,-5.9297 0,-3.2516 -2.67866,-5.9297 -5.92968,-5.9297 z m 0,4 c 1.08497,0 1.92969,0.8453 1.92968,1.9297 0,1.0904 -0.84286,1.9297 -1.92968,1.9297 -1.09281,0 -1.92969,-0.8369 -1.92969,-1.9297 0,-1.0868 0.83872,-1.9297 1.92969,-1.9297 z"
           id="path104"
           inkscape:connector-curvature="0" /></g></g><g
       transform="matrix(0.24,0,0,-0.24,120.07039,137.02611)"
       id="g3619"
       style="fill:#000000"><path
         style="color:#000000;font-style:normal;font-variant:normal;font-weight:normal;font-stretch:normal;font-size:medium;line-height:normal;font-family:sans-serif;text-indent:0;text-align:start;text-decoration:none;text-decoration-line:none;text-decoration-style:solid;text-decoration-color:#000000;letter-spacing:normal;word-spacing:normal;text-transform:none;direction:ltr;block-progression:tb;writing-mode:lr-tb;baseline-shift:baseline;text-anchor:start;white-space:normal;clip-rule:nonzero;display:inline;overflow:visible;visibility:visible;opacity:1;isolation:auto;mix-blend-mode:normal;color-interpolation:sRGB;color-interpolation-filters:linearRGB;solid-color:#000000;solid-opacity:1;fill:#000000;fill-opacity:1;fill-rule:nonzero;stroke:none;stroke-width:5.00000048;stroke-linecap:round;stroke-linejoin:round;stroke-miterlimit:4;stroke-dasharray:none;stroke-dashoffset:0;stroke-opacity:1;color-rendering:auto;image-rendering:auto;shape-rendering:auto;text-rendering:auto;enable-background:accumulate"
         d="m 192.97461,174.42969 a 2.5002502,2.5002502 0 0 0 -0.41016,0.0488 c -8.8637,1.79627 -17.41321,4.44704 -25.55664,7.85937 -8.14712,3.41228 -15.88887,7.5863 -23.13086,12.43555 -7.24549,4.84958 -13.98989,10.36648 -20.15234,16.46875 a 2.5002502,2.5002502 0 1 0 3.51758,3.55273 c 5.93718,-5.8792 12.43646,-11.19441 19.41797,-15.86719 6.97551,-4.67081 14.43142,-8.69157 22.27929,-11.97851 7.09084,-2.97126 14.53971,-5.24877 22.20508,-6.95508 l 1.67969,8.07422 c -7.11368,1.595 -14.02961,3.71013 -20.61524,6.4668 a 2.5002502,2.5002502 0 0 0 -0.002,0 c -7.34655,3.08023 -14.32309,6.84261 -20.85742,11.21875 -6.53635,4.37158 -12.61509,9.3525 -18.17188,14.85351 -4.96946,4.9207 -9.44086,10.31848 -13.50195,16.02539 l -9.12305,-6.09375 a 2.5002502,2.5002502 0 0 0 -3.45312,0.66992 c -4.8963,7.17478 -9.108681,14.84554 -12.556641,22.91602 -3.448771,8.07238 -6.123047,16.5488 -7.939453,25.33008 -1.81533,8.78853 -2.765625,17.88 -2.765625,27.1914 0,9.31505 0.950295,18.40678 2.765625,27.19532 1.816406,8.78253 4.490682,17.25769 7.939453,25.33008 a 2.5002502,2.5002502 0 0 0 3.263672,1.32421 l 22.451169,-9.39648 c 2.57311,5.6545 5.53546,11.09655 9.01172,16.18555 3.93275,5.76756 8.41073,11.13811 13.36133,16.04492 4.94731,4.90229 10.37268,9.33702 16.19336,13.23437 a 2.5002502,2.5002502 0 0 0 0.002,0.002 c 5.82058,3.89222 12.03946,7.24955 18.58594,9.99218 1.63657,0.68596 3.2946,1.3334 4.9707,1.94141 1.67611,0.608 3.37081,1.17724 5.08399,1.70508 0.8566,0.26392 1.71664,0.51631 2.58203,0.75976 a 2.5002502,2.5002502 0 1 0 1.35547,-4.8125 c -0.82583,-0.23232 -1.64747,-0.47472 -2.46485,-0.72656 -1.6348,-0.50368 -3.25223,-1.04681 -4.85156,-1.62695 -1.59932,-0.58016 -3.18064,-1.19706 -4.74219,-1.85156 -6.24601,-2.61675 -12.18331,-5.8212 -17.74023,-9.53711 -5.55682,-3.72069 -10.73489,-7.95559 -15.45508,-12.63282 -4.72625,-4.68444 -9.00007,-9.80988 -12.75195,-15.3125 -3.75687,-5.49977 -6.98277,-11.3781 -9.62891,-17.5664 a 2.5002502,2.5002502 0 0 0 -3.26562,-1.32227 l -22.224613,9.30078 C 95.417092,347.80054 93.077825,340.45847 91.5,332.83008 l 0,-0.002 c -1.746918,-8.45797 -2.662109,-17.20761 -2.662109,-26.18164 0,-8.97091 0.914939,-17.72113 2.662109,-26.17968 1.748593,-8.45344 4.321895,-16.60896 7.640625,-24.37696 2.992265,-7.00386 6.663455,-13.64068 10.794925,-19.95117 l 8.92383,5.96094 a 2.5002502,2.5002502 0 0 0 3.45507,-0.67188 c 4.23017,-6.21011 9.05013,-11.98915 14.38086,-17.26757 5.33321,-5.27968 11.16495,-10.05747 17.4336,-14.25 a 2.5002502,2.5002502 0 0 0 0.002,-0.002 c 6.26769,-4.19756 12.95997,-7.8066 20.00781,-10.76172 7.04864,-2.95047 14.44537,-5.24429 22.11524,-6.79882 a 2.5002502,2.5002502 0 0 0 1.95117,-2.95899 l -2.69531,-12.96875 a 2.5002502,2.5002502 0 0 0 -2.53516,-1.99023 z"
         id="path3596"
         inkscape:connector-curvature="0" /><g
         id="g110"
         transform="matrix(1.25,0,0,1.25,-343.95,-1301.2356)"
         style="fill:#000000"><path
           style="color:#000000;font-style:normal;font-variant:normal;font-weight:normal;font-stretch:normal;font-size:medium;line-height:normal;font-family:sans-serif;text-indent:0;text-align:start;text-decoration:none;text-decoration-line:none;text-decoration-style:solid;text-decoration-color:#000000;letter-spacing:normal;word-spacing:normal;text-transform:none;direction:ltr;block-progression:tb;writing-mode:lr-tb;baseline-shift:baseline;text-anchor:start;white-space:normal;clip-rule:nonzero;display:inline;overflow:visible;visibility:visible;opacity:1;isolation:auto;mix-blend-mode:normal;color-interpolation:sRGB;color-interpolation-filters:linearRGB;solid-color:#000000;solid-opacity:1;fill:#000000;fill-opacity:1;fill-rule:nonzero;stroke:none;stroke-width:4;stroke-linecap:round;stroke-linejoin:round;stroke-miterlimit:4;stroke-dasharray:none;stroke-dashoffset:0;stroke-opacity:1;color-rendering:auto;image-rendering:auto;shape-rendering:auto;text-rendering:auto;enable-background:accumulate"
           d="m 432.37109,1362.8164 c -3.24918,0 -5.92968,2.676 -5.92968,5.9297 0,3.2516 2.67804,5.9297 5.92968,5.9297 3.25164,0 5.92969,-2.6781 5.92969,-5.9297 0,-3.2537 -2.68051,-5.9297 -5.92969,-5.9297 z m 0,4 c 1.08682,0 1.92969,0.8393 1.92969,1.9297 0,1.0844 -0.84533,1.9297 -1.92969,1.9297 -1.08436,0 -1.92968,-0.8453 -1.92968,-1.9297 0,-1.0904 0.84286,-1.9297 1.92968,-1.9297 z"
           id="path112"
           inkscape:connector-curvature="0" /></g></g><g
       transform="matrix(0.24,0,0,-0.24,120.07039,137.02611)"
       id="g3653"
       style="fill:#000000"><path
         style="color:#000000;font-style:normal;font-variant:normal;font-weight:normal;font-stretch:normal;font-size:medium;line-height:normal;font-family:sans-serif;text-indent:0;text-align:start;text-decoration:none;text-decoration-line:none;text-decoration-style:solid;text-decoration-color:#000000;letter-spacing:normal;word-spacing:normal;text-transform:none;direction:ltr;block-progression:tb;writing-mode:lr-tb;baseline-shift:baseline;text-anchor:start;white-space:normal;clip-rule:nonzero;display:inline;overflow:visible;visibility:visible;opacity:1;isolation:auto;mix-blend-mode:normal;color-interpolation:sRGB;color-interpolation-filters:linearRGB;solid-color:#000000;solid-opacity:1;fill:#000000;fill-opacity:1;fill-rule:nonzero;stroke:none;stroke-width:5.00000048;stroke-linecap:round;stroke-linejoin:round;stroke-miterlimit:4;stroke-dasharray:none;stroke-dashoffset:0;stroke-opacity:1;color-rendering:auto;image-rendering:auto;shape-rendering:auto;text-rendering:auto;enable-background:accumulate"
         d="m 350.85938,277.46289 a 2.5002502,2.5002502 0 0 0 -0.41602,0.0488 l -13.0918,2.66992 a 2.5002502,2.5002502 0 0 0 -1.94922,2.95508 c 1.56838,7.59397 2.39063,15.45769 2.39063,23.50976 0,8.05713 -0.82224,15.9177 -2.39063,23.51172 -1.56715,7.59401 -3.87873,14.91549 -6.86132,21.89258 -0.37223,0.87218 -0.75548,1.74027 -1.14844,2.60156 -0.39295,0.86129 -0.79562,1.71634 -1.20899,2.56641 -0.41335,0.85007 -0.83805,1.6947 -1.27148,2.5332 -0.43342,0.8385 -0.8769,1.67144 -1.33008,2.49805 -0.45316,0.8266 -0.91608,1.64657 -1.38867,2.46094 a 2.500732,2.500732 0 0 0 4.32617,2.50976 c 0.49291,-0.84939 0.97457,-1.70418 1.44727,-2.5664 0.47268,-0.86221 0.93653,-1.73077 1.38867,-2.60547 0.45213,-0.8747 0.89299,-1.75575 1.32422,-2.64258 0.43123,-0.88683 0.85173,-1.78106 1.26172,-2.67969 0.40973,-0.89806 0.80909,-1.80144 1.19726,-2.71094 l 0,-0.002 c 3.11206,-7.28024 5.52494,-14.91995 7.16016,-22.84375 1.63661,-7.9244 2.49414,-16.12598 2.49414,-24.52344 0,-7.53067 -0.78712,-14.87796 -2.11133,-22.03906 l 8.19336,-1.67383 c 1.4372,7.69989 2.28711,15.60044 2.28711,23.71289 0,8.97401 -0.91948,17.72458 -2.66797,26.1836 -1.74335,8.45303 -4.31968,16.60834 -7.63867,24.37695 -3.31529,7.76734 -7.37577,15.15474 -12.08985,22.0625 a 2.5002502,2.5002502 0 0 0 -0.002,0.002 c -4.24278,6.22801 -9.09204,12.00838 -14.33594,17.40625 l -7.60937,-7.53906 a 2.5002502,2.5002502 0 0 0 -3.51953,0 c -5.32699,5.27835 -11.16345,10.05501 -17.43164,14.24805 a 2.5002502,2.5002502 0 0 0 -0.002,0 c -6.26339,4.19311 -12.96174,7.80859 -20.00976,10.76367 l 0,-0.002 c -1.76084,0.73758 -3.54394,1.4355 -5.34766,2.08984 -1.80371,0.65434 -3.62864,1.26561 -5.47265,1.83399 -0.46102,0.14209 -0.9233,0.28135 -1.38672,0.41796 -0.46343,0.13662 -0.92678,0.27126 -1.39258,0.40235 -0.46583,0.1311 -0.93422,0.25924 -1.40234,0.38476 a 2.5003245,2.5003245 0 0 0 1.29492,4.83008 c 0.48808,-0.13087 0.97535,-0.26568 1.46094,-0.40234 0.48561,-0.13667 0.96999,-0.27555 1.45312,-0.41797 0.48312,-0.14242 0.96473,-0.28742 1.44531,-0.43555 1.92239,-0.59253 3.82485,-1.23196 5.70508,-1.91406 1.88022,-0.6821 3.73882,-1.40696 5.57422,-2.17578 a 2.5002502,2.5002502 0 0 0 0,-0.002 c 7.34697,-3.08043 14.33027,-6.84775 20.85937,-11.21875 5.84337,-3.90886 11.26255,-8.37077 16.32813,-13.19141 l 7.7793,7.70508 a 2.5002502,2.5002502 0 0 0 3.51953,0 c 6.15516,-6.10262 11.73017,-12.78772 16.62109,-19.9668 l 0.002,-0.002 c 4.8948,-7.17289 9.11247,-14.8452 12.55664,-22.91406 l 0.002,-0.002 c 3.44779,-8.0705 6.12408,-16.54548 7.93554,-25.32812 l 0,-0.002 c 1.81626,-8.78749 2.77149,-17.87829 2.77149,-27.19336 0,-9.31209 -0.95498,-18.40333 -2.77149,-27.1914 a 2.5002502,2.5002502 0 0 0 -2.53124,-1.99219 z"
         id="path3598"
         inkscape:connector-curvature="0" /><g
         id="g106"
         transform="matrix(1.25,0,0,1.25,-343.95,-1301.2356)"
         style="fill:#000000"><path
           style="color:#000000;font-style:normal;font-variant:normal;font-weight:normal;font-stretch:normal;font-size:medium;line-height:normal;font-family:sans-serif;text-indent:0;text-align:start;text-decoration:none;text-decoration-line:none;text-decoration-style:solid;text-decoration-color:#000000;letter-spacing:normal;word-spacing:normal;text-transform:none;direction:ltr;block-progression:tb;writing-mode:lr-tb;baseline-shift:baseline;text-anchor:start;white-space:normal;clip-rule:nonzero;display:inline;overflow:visible;visibility:visible;opacity:1;isolation:auto;mix-blend-mode:normal;color-interpolation:sRGB;color-interpolation-filters:linearRGB;solid-color:#000000;solid-opacity:1;fill:#000000;fill-opacity:1;fill-rule:nonzero;stroke:none;stroke-width:4;stroke-linecap:round;stroke-linejoin:round;stroke-miterlimit:4;stroke-dasharray:none;stroke-dashoffset:0;stroke-opacity:1;color-rendering:auto;image-rendering:auto;shape-rendering:auto;text-rendering:auto;enable-background:accumulate"
           d="m 531.65625,1331.0312 c -3.24918,0 -5.92969,2.6767 -5.92969,5.9297 0,3.2511 2.68051,5.9258 5.92969,5.9258 3.25119,0 5.92969,-2.6766 5.92969,-5.9258 0,-3.2512 -2.6785,-5.9297 -5.92969,-5.9297 z m 0,4 c 1.09281,0 1.92969,0.8369 1.92969,1.9297 0,1.0869 -0.83688,1.9258 -1.92969,1.9258 -1.08682,0 -1.92969,-0.8408 -1.92969,-1.9258 0,-1.0909 0.84287,-1.9297 1.92969,-1.9297 z"
           id="path108"
           inkscape:connector-curvature="0" /></g><g
         id="g114"
         transform="matrix(1.25,0,0,1.25,-343.95,-1301.2356)"
         style="fill:#000000"><path
           style="color:#000000;font-style:normal;font-variant:normal;font-weight:normal;font-stretch:normal;font-size:medium;line-height:normal;font-family:sans-serif;text-indent:0;text-align:start;text-decoration:none;text-decoration-line:none;text-decoration-style:solid;text-decoration-color:#000000;letter-spacing:normal;word-spacing:normal;text-transform:none;direction:ltr;block-progression:tb;writing-mode:lr-tb;baseline-shift:baseline;text-anchor:start;white-space:normal;clip-rule:nonzero;display:inline;overflow:visible;visibility:visible;opacity:1;isolation:auto;mix-blend-mode:normal;color-interpolation:sRGB;color-interpolation-filters:linearRGB;solid-color:#000000;solid-opacity:1;fill:#000000;fill-opacity:1;fill-rule:nonzero;stroke:none;stroke-width:4;stroke-linecap:round;stroke-linejoin:round;stroke-miterlimit:4;stroke-dasharray:none;stroke-dashoffset:0;stroke-opacity:1;color-rendering:auto;image-rendering:auto;shape-rendering:auto;text-rendering:auto;enable-background:accumulate"
           d="m 472.01562,1373.1758 c -3.25118,0 -5.92968,2.6766 -5.92968,5.9258 0,3.2506 2.6785,5.9296 5.92968,5.9296 3.24919,0 5.92579,-2.6796 5.92579,-5.9296 0,-3.2486 -2.6766,-5.9258 -5.92579,-5.9258 z m 0,4 c 1.08682,0 1.92579,0.8383 1.92579,1.9258 0,1.0919 -0.83897,1.9297 -1.92579,1.9296 -1.09281,0 -1.92968,-0.8383 -1.92968,-1.9296 0,-1.0869 0.83687,-1.9258 1.92968,-1.9258 z"
           id="path116"
           inkscape:connector-curvature="0" /></g></g><text
       xml:space="preserve"
       style="font-style:normal;font-weight:normal;font-size:11px;line-height:125%;font-family:sans-serif;letter-spacing:0px;word-spacing:0px;fill:#000000;fill-opacity:1;stroke:none;stroke-width:1px;stroke-linecap:butt;stroke-linejoin:miter;stroke-opacity:1;"
       x="30.15181"
       y="-108.32318"
       id="text5348"
       sodipodi:linespacing="125%"
       transform="scale(1,-1)"><tspan
         sodipodi:role="line"
         id="tspan5350"
         x="30.15181"
         y="-108.32318" /></text>
<text
       xml:space="preserve"
       style="font-style:normal;font-weight:normal;font-size:9px;line-height:125%;font-family:sans-serif;letter-spacing:0px;word-spacing:0px;fill:#f9f9f9;fill-opacity:1;stroke:none;stroke-width:1px;stroke-linecap:butt;stroke-linejoin:miter;stroke-opacity:1"
       x="99.791588"
       y="-34.618759"
       id="text5352"
       sodipodi:linespacing="125%"
       transform="scale(1,-1)"><tspan
         sodipodi:role="line"
         id="tspan5354"
         x="99.791588"
         y="-34.618759"
         style="font-size:4px;fill:#f9f9f9">waschinendeck.org</tspan></text>
</g></svg>